<?xml version="1.0" encoding="UTF-8" ?>
<!DOCTYPE svg PUBLIC "-//W3C//DTD SVG 1.1//EN" "http://www.w3.org/Graphics/SVG/1.1/DTD/svg11.dtd">
<svg width="1080pt" height="1080pt" viewBox="0 0 1080 1080" version="1.1" xmlns="http://www.w3.org/2000/svg">
<g id="#4f7abeff">
<path fill="#4f7abe" opacity="1.00" d=" M 367.48 305.49 C 371.34 301.82 375.02 297.94 379.36 294.84 C 379.59 312.57 380.65 330.26 380.71 347.99 C 381.63 361.92 381.44 375.89 381.84 389.83 C 382.81 401.19 382.30 412.62 382.90 424.00 C 383.35 428.54 383.43 433.10 383.22 437.66 C 346.74 438.05 310.37 450.25 281.17 472.19 C 265.19 484.55 251.67 499.99 241.42 517.40 C 223.19 548.45 215.07 584.48 213.07 620.16 C 212.70 623.53 212.69 626.93 212.24 630.30 C 211.73 629.42 211.20 628.54 210.99 627.55 C 209.67 619.05 207.42 610.66 207.34 602.01 C 205.89 587.01 207.50 571.91 209.65 557.05 C 216.65 513.96 235.00 473.55 257.67 436.56 C 287.93 387.99 326.10 344.82 367.48 305.49 Z" />
<path fill="#4f7abe" opacity="1.00" d=" M 368.44 443.54 C 410.82 439.29 454.50 452.70 487.74 479.21 C 500.68 489.16 511.60 501.43 521.61 514.25 C 542.49 544.09 554.46 580.46 553.75 617.00 C 553.70 656.49 538.74 695.87 512.28 725.24 C 490.76 749.45 461.54 766.64 429.95 773.78 C 390.24 783.01 347.28 776.29 311.94 756.09 C 284.41 740.68 261.50 717.34 246.13 689.84 C 228.43 658.48 221.04 621.47 225.27 585.72 C 229.76 545.43 249.73 506.91 280.80 480.74 C 305.12 459.49 336.40 446.72 368.44 443.54 M 368.47 458.65 C 355.71 460.16 343.18 463.41 331.19 468.01 C 298.06 480.73 269.69 505.40 252.46 536.43 C 233.71 569.86 227.97 610.42 237.14 647.69 C 246.07 685.20 269.71 718.95 301.97 740.08 C 337.61 763.82 383.42 771.64 424.88 760.83 C 459.81 752.06 491.28 730.50 512.15 701.16 C 535.83 668.34 545.58 625.89 538.74 586.01 C 532.52 548.00 511.26 512.72 480.62 489.40 C 449.13 465.10 407.95 453.78 368.47 458.65 Z" />
</g>
<g id="#e48e00ff">
<path fill="#e48e00" opacity="1.00" d=" M 674.47 298.92 C 684.42 297.94 694.45 298.27 704.42 298.51 C 745.19 301.76 784.35 320.92 812.35 350.67 C 839.03 378.58 855.53 415.67 859.40 454.01 C 859.90 467.63 860.27 481.34 858.33 494.87 C 853.80 524.32 841.79 552.77 822.85 575.87 C 802.73 600.46 775.16 619.12 744.52 627.81 C 734.29 630.91 723.74 633.31 713.02 633.70 C 702.04 635.21 690.93 634.24 679.96 633.13 C 641.03 628.37 604.19 609.07 577.71 580.20 C 553.07 553.77 537.21 519.40 532.69 483.59 C 528.41 449.56 534.57 414.20 550.62 383.83 C 565.10 355.96 587.92 332.41 615.59 317.49 C 633.69 307.38 653.92 301.33 674.47 298.92 M 682.46 311.70 C 664.10 313.49 646.01 318.42 629.40 326.47 C 597.78 341.63 571.83 368.08 556.98 399.81 C 540.10 435.32 537.86 477.35 550.56 514.53 C 562.16 549.22 586.72 579.25 618.23 597.75 C 644.79 613.55 676.22 621.00 707.03 618.70 C 736.60 616.88 765.50 605.94 789.14 588.13 C 816.53 567.47 836.76 537.48 845.42 504.27 C 855.11 467.90 850.74 428.02 833.37 394.63 C 815.67 359.87 784.10 332.55 747.29 319.75 C 726.59 312.33 704.32 309.97 682.46 311.70 Z" />
<path fill="#e48e00" opacity="1.00" d=" M 870.18 476.04 C 870.70 477.73 871.18 479.45 871.53 481.20 C 873.50 513.61 865.15 545.77 852.26 575.28 C 837.77 607.81 817.65 637.56 794.76 664.73 C 756.02 710.18 710.09 749.07 661.19 783.16 C 661.59 771.14 663.46 759.23 664.50 747.26 C 667.62 716.86 670.81 686.46 673.92 656.06 C 674.71 651.15 674.45 646.12 675.65 641.26 C 685.11 641.73 694.59 643.23 704.06 641.95 C 724.44 641.21 744.74 636.70 763.54 628.76 C 789.69 618.08 812.48 599.81 829.18 577.09 C 849.84 549.27 861.73 515.91 868.23 482.13 C 868.78 480.06 869.41 478.03 870.18 476.04 Z" />
</g>
<g id="#60533c34">
<path fill="#60533c" opacity="0.20" d=" M 869.46 471.86 C 872.75 473.71 871.38 478.12 871.53 481.20 C 871.18 479.45 870.70 477.73 870.18 476.04 C 869.41 478.03 868.78 480.06 868.23 482.13 C 868.29 478.67 868.69 475.23 869.46 471.86 Z" />
</g>
</svg>
